<svg
    width="100"
    height="100"
    viewBox="0 0 24 24"
    fill="none"
    xmlns="http://www.w3.org/2000/svg"
>
    <!-- Asa de la taza -->
    <path
        d="M16 10c2 0 4 1.5 4 4s-2 4-4 4"
        stroke="#bd365d"
        stroke-width="2"
        fill="none"
    />
    <!-- Cuerpo de la taza -->
    <path
        d="M4 20h10c1.1 0 2-.9 2-2V10H2v8c0 1.1.9 2 2 2z"
        fill="#bd365d"
    />
    <!-- Humo separado -->
    <path
        d="M7 2c0 1.1.9 2 2 2s2 .9 2 2-.9 2-2 2"
        stroke="#999"
        stroke-width="2"
        stroke-linecap="round"
        stroke-linejoin="round"
        fill="none"
        transform="translate(0, 0)"
    />
    <path
        d="M11 2c0 1.1.9 2 2 2s2 .9 2 2-.9 2-2 2"
        stroke="#999"
        stroke-width="2"
        stroke-linecap="round"
        stroke-linejoin="round"
        fill="none"
        transform="translate(0, 0)"
    />
    <!-- Check en el interior -->
    <path
        d="M7 11l2 2 4-4"
        stroke="white"
        stroke-width="2"
        stroke-linecap="round"
        stroke-linejoin="round"
        transform="translate(-1, 4)"
    />
</svg>
